<svg width="27" height="27" viewBox="0 0 27 27" fill="none" xmlns="http://www.w3.org/2000/svg">
<g id="Mask group">
<mask id="mask0_49_6" style="mask-type:luminance" maskUnits="userSpaceOnUse" x="0" y="0" width="27" height="27">
<g id="Group">
<path id="Vector" d="M27 0H0V27H27V0Z" fill="white"/>
</g>
</mask>
<g mask="url(#mask0_49_6)">
<g id="Group_2">
<path id="Vector_2" fill-rule="evenodd" clip-rule="evenodd" d="M1.10899 18.628L0.720631 20.0705C0.572688 20.5328 0.369264 21.217 0.258305 21.8273C0.0548805 22.3636 -0.0190921 22.9554 0.0363874 23.5287C0.0918667 24.102 0.276798 24.6568 0.572688 25.1561C0.868576 25.6554 1.29392 26.0622 1.77475 26.3766C2.25557 26.691 2.81036 26.8759 3.38365 26.9499C3.91995 27.0239 4.53022 27.0239 5.19598 26.9314L8.30285 26.5061C9.07952 26.3952 9.72681 25.8404 9.93022 25.0636L12.0939 17.1855L1.10899 18.628Z" fill="url(#paint0_linear_49_6)"/>
<path id="Vector_3" d="M4.14222 18.9953C0.868937 19.5131 0.184692 21.9727 0.184692 21.9727L3.32853 10.4145L19.7504 8.19531L17.5128 16.3323C17.4018 16.7762 17.032 17.109 16.5696 17.1645L16.4772 17.183L4.03127 18.9953H4.14222Z" fill="url(#paint1_linear_49_6)"/>
<path id="Vector_4" d="M4.14222 18.9953C0.868937 19.5131 0.184692 21.9727 0.184692 21.9727L3.32853 10.4145L19.7504 8.19531L17.5128 16.3323C17.4018 16.7762 17.032 17.109 16.5696 17.1645L16.4772 17.183L4.03127 18.9953H4.14222Z" fill="url(#paint2_linear_49_6)" fill-opacity="0.8"/>
<path id="Vector_5" d="M6.00947 11.635L24.1883 8.9535C24.3917 8.91652 24.5951 8.82404 24.7615 8.69458C24.928 8.54667 25.0389 8.36171 25.0944 8.1583L26.9807 1.3713C27.0362 1.20486 27.0362 1.01993 26.9992 0.853489C26.9622 0.687048 26.8883 0.520612 26.7588 0.39116C26.6478 0.261708 26.4999 0.150749 26.3335 0.0952702C26.167 0.0397905 25.9821 0.00280415 25.8156 0.0397905L8.43208 2.57335C7.50742 2.7213 6.65673 3.12815 5.97249 3.75691C5.28824 4.38568 4.78893 5.18088 4.53002 6.08705L2.03345 15.1487C2.53276 13.3178 2.84715 12.2083 6.00947 11.635Z" fill="url(#paint3_linear_49_6)"/>
<path id="Vector_6" d="M6.00947 11.635L24.1883 8.9535C24.3917 8.91652 24.5951 8.82404 24.7615 8.69458C24.928 8.54667 25.0389 8.36171 25.0944 8.1583L26.9807 1.3713C27.0362 1.20486 27.0362 1.01993 26.9992 0.853489C26.9622 0.687048 26.8883 0.520612 26.7588 0.39116C26.6478 0.261708 26.4999 0.150749 26.3335 0.0952702C26.167 0.0397905 25.9821 0.00280415 25.8156 0.0397905L8.43208 2.57335C7.50742 2.7213 6.65673 3.12815 5.97249 3.75691C5.28824 4.38568 4.78893 5.18088 4.53002 6.08705L2.03345 15.1487C2.53276 13.3178 2.84715 12.2083 6.00947 11.635Z" fill="url(#paint4_linear_49_6)"/>
<path id="Vector_7" d="M6.00947 11.635L24.1883 8.9535C24.3917 8.91652 24.5951 8.82404 24.7615 8.69458C24.928 8.54667 25.0389 8.36171 25.0944 8.1583L26.9807 1.3713C27.0362 1.20486 27.0362 1.01993 26.9992 0.853489C26.9622 0.687048 26.8883 0.520612 26.7588 0.39116C26.6478 0.261708 26.4999 0.150749 26.3335 0.0952702C26.167 0.0397905 25.9821 0.00280415 25.8156 0.0397905L8.43208 2.57335C7.50742 2.7213 6.65673 3.12815 5.97249 3.75691C5.28824 4.38568 4.78893 5.18088 4.53002 6.08705L2.03345 15.1487C2.53276 13.3178 2.84715 12.2083 6.00947 11.635Z" fill="url(#paint5_linear_49_6)" fill-opacity="0.4"/>
<path id="Vector_8" d="M6.01004 11.6321C3.38401 12.1129 2.71825 12.9636 2.29291 14.2766L0.184692 21.9882C0.184692 21.9882 0.850448 19.5471 4.10524 19.0108L16.4956 17.1985L16.5881 17.18C16.81 17.143 17.0134 17.0505 17.1799 16.9026C17.3463 16.7546 17.4573 16.5512 17.5313 16.3478L19.3806 9.65332L6.01004 11.6321Z" fill="url(#paint6_linear_49_6)"/>
<path id="Vector_9" d="M6.01004 11.6321C3.38401 12.1129 2.71825 12.9636 2.29291 14.2766L0.184692 21.9882C0.184692 21.9882 0.850448 19.5471 4.10524 19.0108L16.4956 17.1985L16.5881 17.18C16.81 17.143 17.0134 17.0505 17.1799 16.9026C17.3463 16.7546 17.4573 16.5512 17.5313 16.3478L19.3806 9.65332L6.01004 11.6321Z" fill="url(#paint7_linear_49_6)" fill-opacity="0.2"/>
<path id="Vector_10" fill-rule="evenodd" clip-rule="evenodd" d="M4.10488 19.0143C1.36789 19.4582 0.46173 21.2705 0.258305 21.8253C0.0548805 22.3616 -0.0190921 22.9534 0.0363874 23.5266C0.0918667 24.0999 0.276798 24.6547 0.572688 25.1541C0.868576 25.6534 1.29392 26.0602 1.77475 26.3746C2.25557 26.6889 2.81036 26.8739 3.38365 26.9479C3.91995 27.0218 4.53022 27.0218 5.19598 26.9294L8.30285 26.5041C9.07952 26.3931 9.72681 25.8383 9.93022 25.0616L11.8905 17.8862L4.10488 19.0143Z" fill="url(#paint8_linear_49_6)"/>
</g>
</g>
</g>
<defs>
<linearGradient id="paint0_linear_49_6" x1="6.04625" y1="27.0014" x2="6.04625" y2="17.1866" gradientUnits="userSpaceOnUse">
<stop offset="0.056" stop-color="#2AAC94"/>
<stop offset="0.155" stop-color="#239C87"/>
<stop offset="0.372" stop-color="#177E71"/>
<stop offset="0.588" stop-color="#0E6961"/>
<stop offset="0.799" stop-color="#095D57"/>
<stop offset="1" stop-color="#085954"/>
</linearGradient>
<linearGradient id="paint1_linear_49_6" x1="16.2384" y1="21.9125" x2="6.75978" y2="11.6011" gradientUnits="userSpaceOnUse">
<stop offset="0.042" stop-color="#ABE88E"/>
<stop offset="0.549" stop-color="#2AAA92"/>
<stop offset="0.906" stop-color="#117865"/>
</linearGradient>
<linearGradient id="paint2_linear_49_6" x1="-4.99753" y1="18.9254" x2="4.02308" y2="15.8481" gradientUnits="userSpaceOnUse">
<stop stop-color="#6AD6F9"/>
<stop offset="1" stop-color="#6AD6F9" stop-opacity="0"/>
</linearGradient>
<linearGradient id="paint3_linear_49_6" x1="2.03496" y1="7.5716" x2="26.0493" y2="7.5716" gradientUnits="userSpaceOnUse">
<stop offset="0.043" stop-color="#25FFD4"/>
<stop offset="0.874" stop-color="#55DDB9"/>
</linearGradient>
<linearGradient id="paint4_linear_49_6" x1="2.89573" y1="2.36841" x2="24.5285" y2="12.4145" gradientUnits="userSpaceOnUse">
<stop stop-color="#6AD6F9"/>
<stop offset="0.23" stop-color="#60E9D0"/>
<stop offset="0.651" stop-color="#6DE9BB"/>
<stop offset="0.994" stop-color="#ABE88E"/>
</linearGradient>
<linearGradient id="paint5_linear_49_6" x1="4.19265" y1="5.39252" x2="15.9547" y2="7.99526" gradientUnits="userSpaceOnUse">
<stop stop-color="white" stop-opacity="0"/>
<stop offset="0.459" stop-color="white"/>
<stop offset="1" stop-color="white" stop-opacity="0"/>
</linearGradient>
<linearGradient id="paint6_linear_49_6" x1="9.76447" y1="16.2299" x2="10.0422" y2="7.9818" gradientUnits="userSpaceOnUse">
<stop offset="0.205" stop-color="#063D3B" stop-opacity="0"/>
<stop offset="0.586" stop-color="#063D3B" stop-opacity="0.237"/>
<stop offset="0.872" stop-color="#063D3B" stop-opacity="0.75"/>
</linearGradient>
<linearGradient id="paint7_linear_49_6" x1="-0.524852" y1="13.8834" x2="9.52799" y2="15.7742" gradientUnits="userSpaceOnUse">
<stop stop-color="white" stop-opacity="0"/>
<stop offset="0.459" stop-color="white"/>
<stop offset="1" stop-color="white" stop-opacity="0"/>
</linearGradient>
<linearGradient id="paint8_linear_49_6" x1="6.67059" y1="24.2363" x2="4.71101" y2="14.6475" gradientUnits="userSpaceOnUse">
<stop offset="0.064" stop-color="#063D3B" stop-opacity="0"/>
<stop offset="0.17" stop-color="#063D3B" stop-opacity="0.135"/>
<stop offset="0.562" stop-color="#063D3B" stop-opacity="0.599"/>
<stop offset="0.85" stop-color="#063D3B" stop-opacity="0.9"/>
<stop offset="1" stop-color="#063D3B"/>
</linearGradient>
</defs>
</svg>
